<svg xmlns="http://www.w3.org/2000/svg" width="21" height="17" viewBox="0 0 21 17">
  <metadata><?xpacket begin="﻿" id="W5M0MpCehiHzreSzNTczkc9d"?>
<x:xmpmeta xmlns:x="adobe:ns:meta/" x:xmptk="Adobe XMP Core 5.6-c138 79.159824, 2016/09/14-01:09:01        ">
   <rdf:RDF xmlns:rdf="http://www.w3.org/1999/02/22-rdf-syntax-ns#">
      <rdf:Description rdf:about=""/>
   </rdf:RDF>
</x:xmpmeta>
                                                                                                    
                                                                                                    
                                                                                                    
                                                                                                    
                                                                                                    
                                                                                                    
                                                                                                    
                                                                                                    
                                                                                                    
                                                                                                    
                                                                                                    
                                                                                                    
                                                                                                    
                                                                                                    
                                                                                                    
                                                                                                    
                                                                                                    
                                                                                                    
                                                                                                    
                                                                                                    
                           
<?xpacket end="w"?></metadata>
<defs>
    <style>
      .cls-1 {
        fill: #f95318;
        fill-rule: evenodd;
      }
    </style>
  </defs>
  <path id="Корзина" class="cls-1" d="M1287.95,32.825l-2.43,7.949a1.307,1.307,0,0,1-1.25.93h-9.43a1.347,1.347,0,0,1-1.25-.865L1270,30.88h-2.09a0.942,0.942,0,0,1,0-1.883h2.72a0.942,0.942,0,0,1,.85.632l3.73,10.192h8.68l1.95-6.353h-10.76a0.942,0.942,0,0,1,0-1.883h12a0.929,0.929,0,0,1,.74.4A0.964,0.964,0,0,1,1287.95,32.825ZM1275.31,42.96a1.484,1.484,0,0,0-1.05.444,1.559,1.559,0,0,0,0,2.15,1.464,1.464,0,0,0,2.1,0,1.559,1.559,0,0,0,0-2.15A1.484,1.484,0,0,0,1275.31,42.96Zm8.19,0a1.484,1.484,0,0,0-1.05.444,1.559,1.559,0,0,0,0,2.15,1.464,1.464,0,0,0,2.1,0,1.559,1.559,0,0,0,0-2.15A1.484,1.484,0,0,0,1283.5,42.96Z" transform="translate(-1267 -29)"/>
</svg>
