<svg 
 xmlns="http://www.w3.org/2000/svg"
 xmlns:xlink="http://www.w3.org/1999/xlink">
<path fill-rule="evenodd"  fill="#f95318"
 d="M10.830,15.792 L9.500,16.999 L8.170,15.792 C3.230,11.518 -0.000,8.639 -0.000,5.109 C-0.000,2.229 2.280,-0.000 5.225,-0.000 C6.840,-0.000 8.455,0.743 9.500,1.950 C10.545,0.743 12.160,-0.000 13.775,-0.000 C16.720,-0.000 19.000,2.229 19.000,5.109 C19.000,8.546 15.675,11.426 10.830,15.792 ZM13.775,1.857 C12.350,1.857 10.925,2.786 10.450,4.087 L8.645,4.087 C8.075,2.786 6.650,1.857 5.225,1.857 C3.325,1.857 1.900,3.251 1.900,5.109 C1.900,7.803 4.845,10.404 9.405,14.399 L9.500,14.492 L9.595,14.492 C14.155,10.404 17.100,7.803 17.100,5.109 C17.100,3.251 15.675,1.857 13.775,1.857 Z"/>
</svg>